<?xml version="1.0" encoding="utf-8"?>
<!-- Generator: Adobe Illustrator 21.0.2, SVG Export Plug-In . SVG Version: 6.00 Build 0)  -->
<svg version="1.1" id="Capa_1" xmlns="http://www.w3.org/2000/svg" xmlns:xlink="http://www.w3.org/1999/xlink" x="0px" y="0px"
	 viewBox="0 0 512 512" style="enable-background:new 0 0 512 512;" xml:space="preserve">
<style type="text/css">
	.st0{fill:#3C455C;}
</style>
<g>
	<path class="st0" d="M435,176.6c-4.5-76.8-67.8-138.2-144.1-138.2c-46.3,0-91.2,22.7-119,59.8c-0.6-0.3-1.3-0.6-1.9-0.9
		c-1.7-0.8-3.4-1.6-5.2-2.3c-1-0.4-2-0.7-3-1.1c-1.7-0.6-3.5-1.1-5.2-1.6c-1-0.3-2-0.5-3-0.8c-1.9-0.4-3.9-0.8-5.8-1.1
		c-0.9-0.1-1.7-0.3-2.6-0.4c-2.8-0.3-5.7-0.5-8.6-0.5c-42.3,0-76.8,34.4-76.8,76.8c0,1.1,0.1,2.2,0.1,3.3C24.4,189,0,229.5,0,270.1
		c0,60.4,49.2,109.6,109.6,109.6h44c4.7,0,8.5-3.8,8.5-8.5c0-4.7-3.8-8.5-8.5-8.5h-44c-51,0-92.5-41.5-92.5-92.6
		c0-35.4,23.1-72.2,54.9-87.5l4.8-2.3v-5.4c0-1,0.1-2.1,0.1-3.2l0.1-1.5l-0.1-1.6c0-0.7-0.1-1.5-0.1-2.2c0-32.9,26.8-59.7,59.7-59.7
		c2.6,0,5.2,0.2,7.8,0.6c0.7,0.1,1.3,0.2,2,0.3c2.3,0.4,4.5,0.9,6.8,1.5c0.3,0.1,0.6,0.1,0.9,0.2c2.4,0.7,4.8,1.7,7.2,2.7
		c0.6,0.3,1.2,0.6,1.7,0.8c2.1,1,4.1,2.1,6,3.4c16.4,10.7,27.4,29.1,27.4,50.1c0,4.7,3.8,8.5,8.5,8.5c4.7,0,8.5-3.8,8.5-8.5
		c0-23.5-10.6-44.5-27.3-58.6c24.5-32,64.8-52.3,104.8-52.3c66.1,0,121,52.4,126.7,118.5c-8.7-0.6-21.8-0.9-34.8,1.1
		c-4.7,0.7-7.9,5.1-7.2,9.7c0.6,4.2,4.3,7.3,8.4,7.3c0.4,0,0.9,0,1.3-0.1c19-2.9,38.8-0.2,40,0c39.7,7.6,69.7,44.2,69.7,85.2
		c0,47.2-38.4,85.6-85.6,85.6h-33.9c-4.7,0-8.5,3.8-8.5,8.5c0,4.7,3.8,8.5,8.5,8.5h33.9c56.6,0,102.6-46,102.6-102.6
		C512,230.3,479.3,188.2,435,176.6z"/>
	<path class="st0" d="M270.6,262.8c-0.8-0.8-1.7-1.4-2.8-1.9c-2.1-0.9-4.4-0.9-6.5,0c-1,0.4-2,1.1-2.8,1.9L190.2,331
		c-3.3,3.3-3.3,8.7,0,12.1c1.7,1.7,3.8,2.5,6,2.5s4.4-0.8,6-2.5l53.7-53.7v175.7c0,4.7,3.8,8.5,8.5,8.5c4.7,0,8.5-3.8,8.5-8.5V289.4
		l53.7,53.7c1.7,1.7,3.8,2.5,6,2.5s4.4-0.8,6-2.5c3.3-3.3,3.3-8.7,0-12.1L270.6,262.8z"/>
</g>
</svg>
