<?xml version="1.0" encoding="utf-8"?>
<!-- Generator: Adobe Illustrator 21.0.2, SVG Export Plug-In . SVG Version: 6.00 Build 0)  -->
<svg version="1.1" id="Layer_1" xmlns="http://www.w3.org/2000/svg" xmlns:xlink="http://www.w3.org/1999/xlink" x="0px" y="0px"
	 viewBox="0 0 489.5 489.5" style="enable-background:new 0 0 489.5 489.5;" xml:space="preserve">
<style type="text/css">
	.st0{fill:#FFFFFF;}
</style>
<g>
	<path class="st0" d="M244.7,42.8c-5.5,0-9.9,4.4-9.9,9.9v360.1L160.9,339c-3.9-3.9-10.1-3.9-14,0c-3.9,3.9-3.9,10.1,0,14l90.8,90.8
		c1.9,1.9,4.5,2.9,7,2.9s5.1-1,7-2.9l90.8-90.8c3.9-3.9,3.9-10.1,0-14c-3.9-3.9-10.1-3.9-14,0l-73.9,73.9V52.7
		C254.6,47.2,250.2,42.8,244.7,42.8z"/>
</g>
</svg>
